<svg width="150" height="20" viewBox="0 0 150 20" fill="none" xmlns="http://www.w3.org/2000/svg">
<g clip-path="url(#clip0_141_57648)">
<path d="M7.17389 0H13.5343C16.7277 0 19.3166 2.63363 19.3166 5.88235V14.1177C19.3166 17.3663 16.7277 20 13.5343 20H12.9561C9.76269 20 7.17389 17.3663 7.17389 14.1177V0Z" fill="url(#paint0_linear_141_57648)"/>
<path d="M0 5.88235C0 2.63363 2.58879 0 5.78223 0H12.1427V14.1177C12.1427 17.3663 9.55389 20 6.36044 20H5.78223C2.58879 20 0 17.3663 0 14.1177V5.88235Z" fill="url(#paint1_linear_141_57648)"/>
<path d="M58.2803 10.9067H56.8194V14.6667H54.7194V5.33334H56.8194V9.10668H58.3325L60.7325 5.33334H62.9629L59.9759 9.84001L63.0542 14.6667H60.6542L58.2803 10.9067Z" fill="#141414"/>
<path d="M67.0729 14.7733C66.3333 14.7733 65.6681 14.6178 65.077 14.3067C64.4944 13.9867 64.0379 13.5467 63.7074 12.9867C63.377 12.4267 63.2118 11.7911 63.2118 11.08C63.2118 10.3689 63.377 9.73332 63.7074 9.17332C64.0379 8.61332 64.4944 8.17779 65.077 7.86666C65.6681 7.54666 66.3333 7.38666 67.0729 7.38666C67.8118 7.38666 68.4724 7.54666 69.0555 7.86666C69.6379 8.17779 70.0944 8.61332 70.425 9.17332C70.755 9.73332 70.9207 10.3689 70.9207 11.08C70.9207 11.7911 70.755 12.4267 70.425 12.9867C70.0944 13.5467 69.6379 13.9867 69.0555 14.3067C68.4724 14.6178 67.8118 14.7733 67.0729 14.7733ZM67.0729 13.0667C67.5946 13.0667 68.0205 12.8889 68.3511 12.5333C68.6902 12.1689 68.8598 11.6845 68.8598 11.08C68.8598 10.4755 68.6902 9.99552 68.3511 9.63999C68.0205 9.27552 67.5946 9.09332 67.0729 9.09332C66.5511 9.09332 66.1207 9.27552 65.7816 9.63999C65.4424 9.99552 65.2729 10.4755 65.2729 11.08C65.2729 11.6845 65.4424 12.1689 65.7816 12.5333C66.1207 12.8889 66.5511 13.0667 67.0729 13.0667Z" fill="#141414"/>
<path d="M79.168 14.6667V10.3733L77.068 13.9733H76.2071L74.1593 10.36V14.6667H72.3202V7.49335H74.4463L76.6898 11.64L79.0767 7.49335H80.9811L81.0071 14.6667H79.168Z" fill="#141414"/>
<path d="M89.9341 7.49335V14.6667H87.8994V9.20001H84.9776V14.6667H82.9559V7.49335H89.9341Z" fill="#141414"/>
<path d="M98.7072 11.1067C98.7072 11.1333 98.6941 11.32 98.668 11.6667H93.3593C93.4546 12.1111 93.6809 12.4622 94.0376 12.72C94.3937 12.9778 94.8372 13.1067 95.368 13.1067C95.7333 13.1067 96.0548 13.0533 96.3333 12.9467C96.6202 12.8311 96.885 12.6533 97.1289 12.4133L98.2115 13.6133C97.5502 14.3867 96.585 14.7733 95.3159 14.7733C94.5241 14.7733 93.8243 14.6178 93.2159 14.3067C92.6067 13.9867 92.1372 13.5467 91.8072 12.9867C91.4765 12.4267 91.3115 11.7911 91.3115 11.08C91.3115 10.3778 91.472 9.74666 91.7941 9.18666C92.1241 8.61779 92.5722 8.17779 93.1376 7.86666C93.7115 7.54666 94.3507 7.38666 95.055 7.38666C95.7417 7.38666 96.3633 7.53779 96.9202 7.83999C97.4765 8.14219 97.9115 8.57779 98.2246 9.14666C98.5461 9.70666 98.7072 10.36 98.7072 11.1067ZM95.068 8.95999C94.607 8.95999 94.2202 9.09332 93.9072 9.35999C93.5941 9.62666 93.4024 9.99112 93.3333 10.4533H96.7898C96.72 9.99999 96.5289 9.63999 96.2159 9.37332C95.9028 9.09779 95.52 8.95999 95.068 8.95999Z" fill="#141414"/>
<path d="M105.92 9.20001H103.546V14.6667H101.525V9.20001H99.1506V7.49335H105.92V9.20001Z" fill="#141414"/>
<path d="M113.534 11.1067C113.534 11.1333 113.521 11.32 113.495 11.6667H108.186C108.282 12.1111 108.507 12.4622 108.864 12.72C109.221 12.9778 109.664 13.1067 110.195 13.1067C110.56 13.1067 110.881 13.0533 111.16 12.9467C111.447 12.8311 111.712 12.6533 111.955 12.4133L113.038 13.6133C112.377 14.3867 111.412 14.7733 110.142 14.7733C109.351 14.7733 108.651 14.6178 108.042 14.3067C107.434 13.9867 106.964 13.5467 106.634 12.9867C106.303 12.4267 106.138 11.7911 106.138 11.08C106.138 10.3778 106.299 9.74666 106.621 9.18666C106.951 8.61779 107.399 8.17779 107.964 7.86666C108.538 7.54666 109.177 7.38666 109.882 7.38666C110.568 7.38666 111.19 7.53779 111.747 7.83999C112.303 8.14219 112.738 8.57779 113.051 9.14666C113.373 9.70666 113.534 10.36 113.534 11.1067ZM109.895 8.95999C109.434 8.95999 109.047 9.09332 108.734 9.35999C108.421 9.62666 108.23 9.99112 108.16 10.4533H111.616C111.547 9.99999 111.355 9.63999 111.042 9.37332C110.729 9.09779 110.347 8.95999 109.895 8.95999Z" fill="#141414"/>
<path d="M115.094 7.49335H117.115V10.2933H120.168V7.49335H122.202V14.6667H120.168V11.9867H117.115V14.6667H115.094V7.49335Z" fill="#141414"/>
<path d="M132.054 12.96V16.24H130.163V14.6667H124.15V7.49335H126.172V12.96H129.002V7.49335H131.037V12.96H132.054Z" fill="#141414"/>
<path d="M133.334 7.49335H135.355V11.76L138.773 7.49335H140.638V14.6667H138.616V10.4L135.212 14.6667H133.334V7.49335Z" fill="#141414"/>
<path d="M142.595 7.49335H144.616V11.76L148.034 7.49335H149.899V14.6667H147.877V10.4L144.473 14.6667H142.595V7.49335Z" fill="#141414"/>
<path d="M34.8913 5.33334V14.6667H32.7913V7.09334H28.6696V14.6667H26.5696V5.33334H34.8913Z" fill="url(#paint2_linear_141_57648)"/>
<path d="M41.1329 7.38666C41.7851 7.38666 42.3764 7.54219 42.9068 7.85332C43.4459 8.15552 43.8677 8.58666 44.1721 9.14666C44.4764 9.69779 44.6286 10.3422 44.6286 11.08C44.6286 11.8178 44.4764 12.4667 44.1721 13.0267C43.8677 13.5778 43.4459 14.0089 42.9068 14.32C42.3764 14.6222 41.7851 14.7733 41.1329 14.7733C40.2372 14.7733 39.5329 14.4845 39.0199 13.9067V17.2533H36.9851V7.49332H38.9286V8.31999C39.4329 7.69779 40.1677 7.38666 41.1329 7.38666ZM40.7808 13.0667C41.3025 13.0667 41.7286 12.8889 42.059 12.5333C42.3982 12.1689 42.5677 11.6845 42.5677 11.08C42.5677 10.4755 42.3982 9.99552 42.059 9.63999C41.7286 9.27552 41.3025 9.09332 40.7808 9.09332C40.259 9.09332 39.8286 9.27552 39.4895 9.63999C39.159 9.99552 38.9938 10.4755 38.9938 11.08C38.9938 11.6845 39.159 12.1689 39.4895 12.5333C39.8286 12.8889 40.259 13.0667 40.7808 13.0667Z" fill="url(#paint3_linear_141_57648)"/>
<path d="M49.3416 14.7733C48.6025 14.7733 47.9373 14.6178 47.346 14.3067C46.7633 13.9867 46.3068 13.5467 45.9764 12.9867C45.646 12.4267 45.4808 11.7911 45.4808 11.08C45.4808 10.3689 45.646 9.73332 45.9764 9.17332C46.3068 8.61332 46.7633 8.17779 47.346 7.86666C47.9373 7.54666 48.6025 7.38666 49.3416 7.38666C50.0808 7.38666 50.7416 7.54666 51.3243 7.86666C51.9068 8.17779 52.3634 8.61332 52.6938 9.17332C53.0242 9.73332 53.1895 10.3689 53.1895 11.08C53.1895 11.7911 53.0242 12.4267 52.6938 12.9867C52.3634 13.5467 51.9068 13.9867 51.3243 14.3067C50.7416 14.6178 50.0808 14.7733 49.3416 14.7733ZM49.3416 13.0667C49.8634 13.0667 50.2895 12.8889 50.6199 12.5333C50.959 12.1689 51.1286 11.6845 51.1286 11.08C51.1286 10.4755 50.959 9.99552 50.6199 9.63999C50.2895 9.27552 49.8634 9.09332 49.3416 9.09332C48.8199 9.09332 48.3895 9.27552 48.0503 9.63999C47.7112 9.99552 47.5416 10.4755 47.5416 11.08C47.5416 11.6845 47.7112 12.1689 48.0503 12.5333C48.3895 12.8889 48.8199 13.0667 49.3416 13.0667Z" fill="url(#paint4_linear_141_57648)"/>
</g>
<defs>
<linearGradient id="paint0_linear_141_57648" x1="10.0072" y1="-0.70588" x2="18.9634" y2="32.8657" gradientUnits="userSpaceOnUse">
<stop stop-color="#18CBFF"/>
<stop offset="0.9999" stop-color="#15395B"/>
<stop offset="1" stop-color="#112A45"/>
</linearGradient>
<linearGradient id="paint1_linear_141_57648" x1="-2.89111" y1="-4.94117" x2="8.96951" y2="27.2815" gradientUnits="userSpaceOnUse">
<stop stop-color="#F1F1F1" stop-opacity="0.69"/>
<stop offset="1" stop-color="#65B7F3"/>
</linearGradient>
<linearGradient id="paint2_linear_141_57648" x1="39.8795" y1="5.33334" x2="39.8795" y2="17.2533" gradientUnits="userSpaceOnUse">
<stop offset="0.510417" stop-color="#177DDC"/>
<stop offset="1" stop-color="#164C7E"/>
</linearGradient>
<linearGradient id="paint3_linear_141_57648" x1="39.8795" y1="5.33332" x2="39.8795" y2="17.2533" gradientUnits="userSpaceOnUse">
<stop offset="0.510417" stop-color="#177DDC"/>
<stop offset="1" stop-color="#164C7E"/>
</linearGradient>
<linearGradient id="paint4_linear_141_57648" x1="39.8795" y1="5.33332" x2="39.8795" y2="17.2533" gradientUnits="userSpaceOnUse">
<stop offset="0.510417" stop-color="#177DDC"/>
<stop offset="1" stop-color="#164C7E"/>
</linearGradient>
<clipPath id="clip0_141_57648">
<rect width="150" height="20" fill="white"/>
</clipPath>
</defs>
</svg>
